<?xml version="1.0" encoding="utf-8"?>
<svg width="500.00003px" height="150px" viewBox="0 0 500.00003 150" version="1.1" xmlns:xlink="http://www.w3.org/1999/xlink" xmlns="http://www.w3.org/2000/svg">
  <path d="M0 74.2044C0 60.5581 11.5007 59.129 19.2617 47.5775C27.0533 35.9802 23.4149 33.0956 19.2616 18.4148C19.2616 18.4148 22.1308 33.6028 19.2616 18.4148C16.3925 3.22668 45.7731 3.12576 56.5811 7.11218C69.8153 11.9935 82.8895 18.922 103.596 18.4148C124.302 17.9077 132.696 0.720734 149.679 0.0296631C171.745 -0.868225 175.181 18.922 196.63 18.4147C218.078 17.9076 220.205 0.0296478 243.179 0.0296478C266.152 0.0296478 264.165 18.1657 288.523 18.4148C312.881 18.6639 312.394 -0.0364075 335.474 0.0296631C360.228 0.10054 369.663 18.6728 392.055 18.4147C414.446 18.1567 430.319 11.6034 443.018 7.11221C457.646 1.93907 482.264 3.73389 479.936 18.4148C477.609 33.0956 473.444 33.8475 479.936 47.5775C486.428 61.3074 500 59.6072 500 74.2044C500 88.8016 486.429 88.7698 479.936 99.8802C473.444 110.991 478.251 116.3 479.936 130.628C481.621 144.956 458.568 148.569 443.018 142.99C427.468 137.411 411.236 130.628 392.055 130.628C372.873 130.628 361.357 149.963 335.474 149.963C309.591 149.963 312.203 130.628 288.523 130.628C264.843 130.628 268.72 150.978 243.178 149.963C217.637 148.949 216.794 130.628 196.63 130.628C176.465 130.628 172.352 150.139 149.679 149.963C127.006 149.788 123.66 130.58 103.596 130.628C83.5319 130.675 72.7202 134.939 56.5811 142.99C44.382 149.077 16.874 145.463 19.2617 130.628C21.6493 115.793 25.301 110.436 19.2616 99.8802C13.2223 89.3247 0 87.8507 0 74.2044Z" id="Ellipse" fill="#000000" fill-opacity="0.9490196" fill-rule="evenodd" stroke="none" />
</svg>