<?xml version="1.0" encoding="utf-8"?>
<svg width="351px" height="100px" viewBox="0 0 351 100" version="1.1" xmlns:xlink="http://www.w3.org/1999/xlink" xmlns="http://www.w3.org/2000/svg">
  <path d="M0 49.4696C0 40.372 8.05051 39.4193 13.4832 31.7183C18.9373 23.9868 16.3904 22.0638 13.4832 12.2765C13.4832 12.2765 15.4916 22.4019 13.4832 12.2765C11.4747 2.15112 32.0412 2.08385 39.6068 4.74146C48.8707 7.99567 58.0226 12.6147 72.5172 12.2766C87.0117 11.9384 92.8874 0.480484 104.775 0.0197754C120.221 -0.578827 122.627 12.6146 137.641 12.2765C152.655 11.9384 154.144 0.0197601 170.225 0.0197601C186.306 0.0197601 184.916 12.1105 201.966 12.2766C219.017 12.4426 218.676 -0.0242767 234.832 0.0197754C252.159 0.0670166 258.764 12.4485 274.438 12.2765C290.112 12.1045 301.223 7.73558 310.113 4.74147C320.352 1.29271 337.585 2.48926 335.956 12.2765C334.326 22.0638 331.411 22.565 335.955 31.7183C340.5 40.8716 350 39.7381 350 49.4696C350 59.201 340.5 59.1799 335.956 66.5868C331.411 73.9937 334.775 77.5334 335.955 87.0852C337.135 96.6371 320.998 99.0462 310.113 95.3269C299.228 91.6076 287.865 87.0852 274.438 87.0852C261.011 87.0852 252.95 99.9755 234.832 99.9755C216.713 99.9755 218.542 87.0852 201.966 87.0852C185.39 87.0852 188.104 100.652 170.225 99.9755C152.346 99.2993 151.756 87.0852 137.641 87.0852C123.526 87.0852 120.646 100.092 104.775 99.9755C88.9044 99.8586 86.562 87.0535 72.5172 87.0852C58.4723 87.1169 50.9041 89.9591 39.6068 95.327C31.0674 99.3843 11.8118 96.9752 13.4832 87.0852C15.1545 77.1952 17.7107 73.6238 13.4832 66.5868C9.2556 59.5498 0 58.5671 0 49.4696Z" id="Ellipse" fill="#000000" fill-opacity="0.9490196" fill-rule="evenodd" stroke="none" />
</svg>